<svg width="126" height="40" viewBox="0 0 126 40" fill="none" xmlns="http://www.w3.org/2000/svg">
<g clip-path="url(#clip0_209_246)">
<path d="M50.5676 28.9319H46.7939V13.2082H50.5676V28.9319ZM56.9829 23.6488V28.9319H53.2092V13.2082H59.4987C60.7565 13.2082 61.7628 13.4599 62.6434 13.8372C63.5239 14.2145 64.2787 14.9693 64.7818 15.7241C65.285 16.4788 65.5365 17.4851 65.5365 18.4914C65.5365 20.0008 65.0333 21.2588 63.9012 22.1392C62.7692 23.0199 61.2596 23.523 59.3729 23.523H56.9829V23.6488ZM56.9829 20.6298H59.4987C60.2533 20.6298 60.7565 20.504 61.1339 20.1266C61.5113 19.7493 61.7628 19.2462 61.7628 18.6172C61.7628 17.8624 61.5113 17.2336 61.1339 16.8561C60.7565 16.4788 60.2533 16.2272 59.4987 16.2272H56.9829V20.6298ZM75.7255 24.7808C75.7255 24.2777 75.4738 23.7745 75.0965 23.523C74.7192 23.2714 73.9644 22.894 73.0839 22.5166C72.0776 22.1392 71.3228 21.8877 70.6938 21.5104C68.6812 20.504 67.6749 19.1203 67.6749 17.3592C67.6749 16.4788 67.9266 15.7241 68.4297 15.0951C68.9329 14.4662 69.6875 13.963 70.5681 13.5857C71.4486 13.2082 72.5807 13.0825 73.7129 13.0825C74.8449 13.0825 75.8512 13.334 76.7318 13.7114C77.6122 14.0888 78.367 14.7177 78.8702 15.4725C79.3733 16.2272 79.6249 17.1077 79.6249 17.9882H75.8513C75.8513 17.3592 75.5996 16.8561 75.2223 16.4788C74.845 16.1014 74.3417 15.9756 73.587 15.9756C72.9581 15.9756 72.3291 16.1014 71.9518 16.4788C71.5744 16.7304 71.3228 17.1077 71.3228 17.6109C71.3228 17.9882 71.5744 18.3657 71.9518 18.743C72.3291 19.1203 73.0839 19.372 74.216 19.7493C75.348 20.1266 76.2286 20.504 76.8576 20.8814C78.6186 21.8877 79.3733 23.2714 79.3733 24.9066C79.3733 26.2904 78.8702 27.4224 77.8639 28.1772C76.8576 28.9319 75.348 29.3093 73.587 29.3093C72.3291 29.3093 71.197 29.0577 70.065 28.6803C69.0585 28.1772 68.3039 27.5482 67.6749 26.7936C67.1718 26.0388 66.9202 25.0325 66.9202 24.0262H70.6938C70.6938 24.9066 70.9455 25.5356 71.3228 25.9129C71.7001 26.2903 72.4549 26.5419 73.4612 26.5419C74.0902 26.5419 74.5933 26.4161 74.9707 26.1646C75.4738 25.6614 75.7255 25.284 75.7255 24.7808ZM85.4112 28.9319H81.6376V13.2082H85.4112V28.9319Z" fill="#161616"/>
<path d="M90.9461 22.516V28.9312H89.5625V13.2075H94.9714C96.6066 13.2075 97.8646 13.585 98.8709 14.4655C99.8772 15.3459 100.254 16.4781 100.254 17.8618C100.254 19.3713 99.7513 20.5033 98.8709 21.2581C97.9904 22.0129 96.6066 22.516 94.9714 22.516H90.9461ZM90.9461 21.3839H94.9714C96.2293 21.3839 97.2356 21.1322 97.8646 20.5033C98.4935 19.8744 98.8709 18.9938 98.8709 17.9875C98.8709 16.8554 98.4935 15.9749 97.8646 15.3459C97.2356 14.7171 96.2293 14.3396 94.9714 14.3396H90.8204V21.3839H90.9461ZM110.192 28.9312C110.066 28.5538 109.94 28.0507 109.94 27.296C109.437 27.9249 108.934 28.3023 108.179 28.6796C107.425 29.057 106.796 29.1828 105.915 29.1828C104.783 29.1828 103.902 28.9312 103.148 28.3023C102.519 27.6733 102.141 26.9185 102.141 25.9122C102.141 24.7801 102.645 23.8996 103.525 23.2707C104.531 22.6417 105.789 22.2644 107.55 22.2644H109.94V20.8807C109.94 20.0001 109.689 19.3713 109.186 18.8681C108.682 18.365 107.928 18.1133 106.921 18.1133C106.041 18.1133 105.286 18.365 104.657 18.8681C104.028 19.3713 103.777 19.8744 103.777 20.5033H102.519C102.519 19.6228 102.896 18.7423 103.777 18.1133C104.657 17.4844 105.663 17.107 106.921 17.107C108.179 17.107 109.311 17.4844 109.94 18.1133C110.695 18.7423 111.072 19.6228 111.072 20.8807V26.4154C111.072 27.5475 111.198 28.428 111.45 28.9312V29.057H110.192V28.9312ZM106.167 28.0507C107.047 28.0507 107.802 27.7992 108.431 27.4217C109.06 27.0444 109.563 26.4154 109.94 25.7864V23.2707H107.676C106.418 23.2707 105.412 23.5223 104.657 24.0255C103.903 24.5286 103.525 25.1576 103.525 25.9122C103.525 26.5412 103.777 27.1702 104.28 27.5475C104.783 27.799 105.412 28.0507 106.167 28.0507ZM118.242 27.0444L121.639 17.2329H123.022L117.991 30.9439L117.739 31.5727C117.11 32.9565 116.104 33.7112 114.72 33.7112C114.469 33.7112 114.091 33.7112 113.714 33.5855V32.4533L114.343 32.579C114.972 32.579 115.475 32.4533 115.852 32.0759C116.23 31.8244 116.607 31.1954 116.859 30.4407L117.488 28.8055L113.085 17.2329H114.469L118.242 27.0444Z" fill="#161616"/>
<path d="M0.378418 0.125977V3.52227L2.39105 0.125977H0.378418Z" fill="#161616"/>
<path d="M7.04309 4.78017V3.2707L5.28205 0.125977H2.26312L0.250488 3.52227V4.78017H7.04309Z" fill="#161616"/>
<path d="M11.3208 0.125977V2.26438L12.5787 0.125977H11.3208Z" fill="#161616"/>
<path d="M7.16973 0.251953H5.40869L7.16973 3.39668V0.251953Z" fill="#161616"/>
<path d="M12.8305 6.28945H15.8495V4.65421H17.8621L15.2206 0H12.4532L11.1953 2.13842V6.28945H12.8305Z" fill="#161616"/>
<path d="M19.875 4.77999L22.6424 0.125796L15.3467 0L17.9883 4.65421L19.875 4.77999Z" fill="#161616"/>
<path d="M22.5166 4.78017C23.5229 4.78017 24.4035 5.03175 25.1582 5.28333C25.7871 5.53492 26.4161 5.91227 26.9192 6.41543H28.9319L25.6613 0.503347C24.655 0.251769 23.6487 0.125977 22.6424 0.125977L19.875 4.78017H22.5166Z" fill="#161616"/>
<path d="M30.5672 3.64932C30.064 3.14616 29.5609 2.643 28.9319 2.26563C27.9256 1.51089 26.7935 1.00774 25.5356 0.630371L28.8062 6.54247L30.5672 3.64932Z" fill="#161616"/>
<path d="M32.7057 6.5411C32.2025 5.409 31.4477 4.40269 30.5672 3.64795L28.8062 6.5411H32.7057Z" fill="#161616"/>
<path d="M0.251465 8.42773V10.4404L1.38355 8.42773H0.251465Z" fill="#161616"/>
<path d="M4.90585 14.9687V13.0819H6.6669L4.02532 8.42773H1.50954L0.377441 10.4404V14.9687H1.76113H4.90585Z" fill="#161616"/>
<path d="M10.5667 10.0632V8.55371H3.8999L6.54148 13.2079H8.6799L10.5667 10.0632Z" fill="#161616"/>
<path d="M11.1958 6.29032V8.42876H10.5669V9.93822L12.8311 6.16455L11.1958 6.29032Z" fill="#161616"/>
<path d="M10.5665 13.0817H15.7238V11.5722L12.7049 6.28906L10.4407 10.0627V10.8175V10.0627L8.67969 13.0817H10.5665Z" fill="#161616"/>
<path d="M15.85 6.41504H12.8311L15.85 11.6982V6.41504Z" fill="#161616"/>
<path d="M28.9316 6.54102H26.9189C27.4221 6.91839 27.7994 7.42154 28.1768 7.92469C28.9316 9.05679 29.3089 10.3147 29.3089 11.6984C29.3089 12.0757 29.3089 12.4532 29.1831 12.8305L32.8309 6.6668C32.8309 6.6668 32.8309 6.54102 32.7051 6.54102H28.9316Z" fill="#161616"/>
<path d="M28.6802 14.3399C28.5544 14.5915 28.4286 14.8431 28.3027 15.2204H31.8249H33.3344C33.7117 14.0883 33.8375 12.9562 33.9633 11.6984C33.9633 10.0631 33.7117 8.55365 33.0829 7.16996C32.957 6.91839 32.957 6.7926 32.8312 6.54102L29.1833 12.7047C29.0575 13.3336 28.9317 13.8368 28.6802 14.3399Z" fill="#161616"/>
<path d="M0.251465 14.9688V17.3587L1.63516 14.9688H0.251465Z" fill="#161616"/>
<path d="M4.77988 23.6481V20.6292L1.63516 14.9688L0.251465 17.3587V23.6481H0.628817H4.77988Z" fill="#161616"/>
<path d="M9.56006 18.6149L9.68519 18.3647H9.56006V18.6149Z" fill="#161616"/>
<path d="M1.63574 14.9688L4.78047 20.6292V14.9688H1.63574Z" fill="#161616"/>
<path d="M16.2269 23.0189L13.5853 18.3647H9.68585L9.56006 18.6163V23.6479H10.6921H14.2143V22.8931L16.2269 23.0189Z" fill="#161616"/>
<path d="M13.5854 18.3647L16.227 23.0189H17.1075L19.8749 18.3647H13.5854Z" fill="#161616"/>
<path d="M19.7492 18.4907L16.9819 23.1449H22.2651C23.5229 23.1449 24.7808 23.0191 25.913 22.6418L23.5229 18.4907C23.1456 18.6165 22.7682 18.6164 22.2651 18.6164L19.7492 18.4907Z" fill="#161616"/>
<path d="M28.3025 15.2212C27.7993 16.1017 27.0445 16.8565 26.164 17.3596C25.4092 17.8628 24.5288 18.2401 23.5225 18.3659L25.9124 22.517C26.164 22.3911 26.5414 22.2653 26.793 22.2653C27.1703 22.1396 27.5477 21.888 27.925 21.6365L31.6987 15.2212H28.3025Z" fill="#161616"/>
<path d="M27.9253 21.6362C29.4347 20.7557 30.8184 19.4978 31.8247 18.1141C32.0763 17.7368 32.3278 17.2336 32.5795 16.7305L31.6989 15.0952L27.9253 21.6362Z" fill="#161616"/>
<path d="M32.7052 16.8565C32.9567 16.3533 33.2083 15.8502 33.3342 15.2212H31.8247L32.7052 16.8565Z" fill="#161616"/>
<path d="M0.126465 23.6489V24.2779L0.503855 23.6489H0.126465Z" fill="#161616"/>
<path d="M4.78067 32.4549V31.197L0.629613 23.7754L0.252261 24.4044L0.126465 32.4549H4.78067Z" fill="#161616"/>
<path d="M0.503418 23.6489L4.65444 31.0705L4.78023 23.6489H0.503418Z" fill="#161616"/>
<path d="M9.43457 25.5357L10.5667 23.6489H9.43457V25.5357Z" fill="#161616"/>
<path d="M10.5665 23.7729L9.43435 25.6597L9.30859 32.4525H13.837V29.9366L10.5665 23.7729Z" fill="#161616"/>
<path d="M14.0885 29.939V23.7754H10.5664L14.0885 29.939Z" fill="#161616"/>
<path d="M0 39.6238H3.52212L0.125796 33.5859L0 39.6238Z" fill="#161616"/>
<path d="M4.65469 34.9707V32.3291H0.000488281V33.4612L3.39681 39.499H5.15784L7.92523 34.8449L4.65469 34.9707Z" fill="#161616"/>
<path d="M9.43374 32.5791V35.0949H8.0501L5.28271 39.7492L13.5848 39.875L9.43374 32.5791Z" fill="#161616"/>
<path d="M13.5848 39.7492H13.9622L14.088 32.5791H9.55957L13.5848 39.7492Z" fill="#161616"/>
<path d="M40.2524 40.0005H41.0072L41.3846 1.3833H40.6298L40.2524 40.0005Z" fill="#161616"/>
</g>
<defs>
<clipPath id="clip0_209_246">
<rect width="123.636" height="40" fill="white"/>
</clipPath>
</defs>
</svg>
