<svg width="28" height="32" viewBox="0 0 28 32" fill="none" xmlns="http://www.w3.org/2000/svg">
<g clip-path="url(#clip0_291_623)">
<path d="M0.302734 0.10083V2.81787L1.91284 0.10083H0.302734Z" fill="#FFEF82"/>
<path d="M5.63428 3.82418V2.61661L4.22544 0.10083H1.8103L0.200195 2.81787V3.82418H5.63428Z" fill="#D3A609"/>
<path d="M9.05664 0.10083V1.81156L10.063 0.10083H9.05664Z" fill="#D3A609"/>
<path d="M5.73598 0.201721H4.32715L5.73598 2.7175V0.201721Z" fill="#FFEF82"/>
<path d="M10.2642 5.03156H12.6794V3.72336H14.2895L12.1763 0H9.96234L8.95605 1.71074V5.03156H10.2642Z" fill="#FFEF82"/>
<path d="M15.9 3.82399L18.1139 0.100637L12.2773 0L14.3906 3.72337L15.9 3.82399Z" fill="#FFE000"/>
<path d="M18.0137 3.82418C18.8187 3.82418 19.5232 4.02545 20.1269 4.22671C20.6301 4.42798 21.1333 4.72987 21.5358 5.13239H23.1459L20.5294 0.402727C19.7244 0.201464 18.9193 0.10083 18.1143 0.10083L15.9004 3.82418H18.0137Z" fill="#D3A609"/>
<path d="M24.4539 2.91943C24.0514 2.51691 23.6489 2.11438 23.1457 1.81248C22.3407 1.20869 21.435 0.806165 20.4287 0.504272L23.0451 5.23395L24.4539 2.91943Z" fill="#FFEF82"/>
<path d="M26.1645 5.23286C25.762 4.32718 25.1582 3.52213 24.4538 2.91833L23.0449 5.23286H26.1645Z" fill="#D3A609"/>
<path d="M0.201172 6.74219V8.35228L1.10684 6.74219H0.201172Z" fill="#D3A609"/>
<path d="M3.92449 11.975V10.4656H5.33332L3.22006 6.74219H1.20744L0.301758 8.35228V11.975H1.40871H3.92449Z" fill="#FFE000"/>
<path d="M8.45359 8.05059V6.84302H3.12012L5.23338 10.5664H6.94412L8.45359 8.05059Z" fill="#FFEF82"/>
<path d="M8.95628 5.03244V6.74319H8.45312V7.95076L10.2645 4.93182L8.95628 5.03244Z" fill="#D3A609"/>
<path d="M8.45283 10.4654H12.5787V9.25777L10.1636 5.03125L8.35219 8.05019V8.65398V8.05019L6.94336 10.4654H8.45283Z" fill="#FFE000"/>
<path d="M12.6798 5.13208H10.2646L12.6798 9.35859V5.13208Z" fill="#D3A609"/>
<path d="M23.1452 5.23297H21.5352C21.9377 5.53487 22.2395 5.93739 22.5414 6.33991C23.1452 7.24559 23.4471 8.2519 23.4471 9.35885C23.4471 9.66074 23.4471 9.96269 23.3465 10.2646L26.2648 5.3336C26.2648 5.3336 26.2648 5.23297 26.1641 5.23297H23.1452Z" fill="#FFE000"/>
<path d="M22.9445 11.4721C22.8439 11.6733 22.7432 11.8746 22.6426 12.1765H25.4603H26.6679C26.9698 11.2708 27.0704 10.3651 27.1711 9.35885C27.1711 8.05064 26.9698 6.84308 26.4667 5.73613C26.366 5.53487 26.366 5.43424 26.2654 5.23297L23.3471 10.1639C23.2464 10.6671 23.1458 11.0696 22.9445 11.4721Z" fill="#FFEF82"/>
<path d="M0.201172 11.9752V13.8871L1.30812 11.9752H0.201172Z" fill="#D3A609"/>
<path d="M3.82391 18.9187V16.5035L1.30812 11.9752L0.201172 13.8871V18.9187H0.503054H3.82391Z" fill="#FFEF82"/>
<path d="M7.64844 14.8919L7.74854 14.6918H7.64844V14.8919Z" fill="#7FCCE2"/>
<path d="M1.30859 11.9752L3.82438 16.5035V11.9752H1.30859Z" fill="#D3A609"/>
<path d="M12.9819 18.4151L10.8687 14.6918H7.74907L7.64844 14.893V18.9183H8.55411H11.3718V18.3145L12.9819 18.4151Z" fill="#D3A609"/>
<path d="M10.8682 14.6918L12.9814 18.4151H13.6858L15.8997 14.6918H10.8682Z" fill="#FFEF82"/>
<path d="M15.7988 14.7926L13.585 18.5159H17.8115C18.8177 18.5159 19.8241 18.4153 20.7298 18.1134L18.8177 14.7926C18.5159 14.8933 18.214 14.8932 17.8115 14.8932L15.7988 14.7926Z" fill="#FFE000"/>
<path d="M22.6424 12.1769C22.2398 12.8813 21.636 13.4851 20.9316 13.8876C20.3278 14.2901 19.6234 14.592 18.8184 14.6927L20.7303 18.0135C20.9316 17.9128 21.2335 17.8122 21.4348 17.8122C21.7367 17.7116 22.0385 17.5103 22.3404 17.3091L25.3594 12.1769H22.6424Z" fill="#D3A609"/>
<path d="M22.3408 17.3088C23.5484 16.6044 24.6553 15.5981 25.4603 14.4912C25.6616 14.1893 25.8629 13.7868 26.0642 13.3843L25.3597 12.076L22.3408 17.3088Z" fill="#FFEF82"/>
<path d="M26.1643 13.4851C26.3656 13.0826 26.5669 12.6801 26.6675 12.1769H25.46L26.1643 13.4851Z" fill="#FFE000"/>
<path d="M0.101562 18.9193V19.4224L0.403475 18.9193H0.101562Z" fill="#42BDDA"/>
<path d="M3.82493 25.9638V24.9574L0.504081 19.0201L0.2022 19.5233L0.101562 25.9638H3.82493Z" fill="#FFE000"/>
<path d="M0.402344 18.9193L3.72316 24.8565L3.8238 18.9193H0.402344Z" fill="#D3A609"/>
<path d="M7.54785 20.4287L8.45356 18.9193H7.54785V20.4287Z" fill="#FFEF82"/>
<path d="M8.45358 19.0185L7.54787 20.5279L7.44727 25.9621H11.07V23.9494L8.45358 19.0185Z" fill="#D3A609"/>
<path d="M11.2708 23.951V19.0201H8.45312L11.2708 23.951Z" fill="#FFE000"/>
<path d="M0 31.6991H2.8177L0.100637 26.8688L0 31.6991Z" fill="#FFEF82"/>
<path d="M3.72336 27.9764V25.8632H0V26.7689L2.71706 31.5991H4.12588L6.33979 27.8758L3.72336 27.9764Z" fill="#D3A609"/>
<path d="M7.54739 26.0634V28.076H6.44047L4.22656 31.7995L10.8682 31.9001L7.54739 26.0634Z" fill="#FFE000"/>
<path d="M10.8677 31.7995H11.1695L11.2702 26.0634H7.64746L10.8677 31.7995Z" fill="#FFEF82"/>
</g>
<defs>
<clipPath id="clip0_291_623">
<rect width="27.1515" height="32" fill="white"/>
</clipPath>
</defs>
</svg>
