<svg width="126" height="40" viewBox="0 0 126 40" fill="none" xmlns="http://www.w3.org/2000/svg">
<g clip-path="url(#clip0_201_1047)">
<path d="M50.5676 28.9317H46.7939V13.2081H50.5676V28.9317ZM56.9829 23.6487V28.9317H53.2092V13.2081H59.4987C60.7565 13.2081 61.7628 13.4597 62.6434 13.8371C63.5239 14.2144 64.2787 14.9692 64.7818 15.724C65.285 16.4786 65.5365 17.4849 65.5365 18.4912C65.5365 20.0007 65.0333 21.2586 63.9012 22.1391C62.7692 23.0197 61.2596 23.5229 59.3729 23.5229H56.9829V23.6487ZM56.9829 20.6297H59.4987C60.2533 20.6297 60.7565 20.5039 61.1339 20.1265C61.5113 19.7492 61.7628 19.246 61.7628 18.6171C61.7628 17.8623 61.5113 17.2334 61.1339 16.856C60.7565 16.4786 60.2533 16.2271 59.4987 16.2271H56.9829V20.6297ZM75.7255 24.7807C75.7255 24.2775 75.4738 23.7744 75.0965 23.5229C74.7192 23.2712 73.9644 22.8939 73.0839 22.5165C72.0776 22.1391 71.3228 21.8876 70.6938 21.5103C68.6812 20.5039 67.6749 19.1202 67.6749 17.3591C67.6749 16.4786 67.9266 15.724 68.4297 15.095C68.9329 14.466 69.6875 13.9629 70.5681 13.5855C71.4486 13.2081 72.5807 13.0824 73.7129 13.0824C74.8449 13.0824 75.8512 13.3339 76.7318 13.7112C77.6122 14.0887 78.367 14.7175 78.8702 15.4723C79.3733 16.2271 79.6249 17.1076 79.6249 17.9881H75.8513C75.8513 17.3591 75.5996 16.856 75.2223 16.4786C74.845 16.1013 74.3417 15.9755 73.587 15.9755C72.9581 15.9755 72.3291 16.1013 71.9518 16.4786C71.5744 16.7303 71.3228 17.1076 71.3228 17.6108C71.3228 17.9881 71.5744 18.3655 71.9518 18.7429C72.3291 19.1202 73.0839 19.3719 74.216 19.7492C75.348 20.1265 76.2286 20.5039 76.8576 20.8813C78.6186 21.8876 79.3733 23.2712 79.3733 24.9065C79.3733 26.2903 78.8702 27.4223 77.8639 28.1771C76.8576 28.9317 75.348 29.3092 73.587 29.3092C72.3291 29.3092 71.197 29.0575 70.065 28.6802C69.0585 28.1771 68.3039 27.5481 67.6749 26.7934C67.1718 26.0386 66.9202 25.0323 66.9202 24.026H70.6938C70.6938 24.9065 70.9455 25.5355 71.3228 25.9128C71.7001 26.2902 72.4549 26.5418 73.4612 26.5418C74.0902 26.5418 74.5933 26.416 74.9707 26.1645C75.4738 25.6613 75.7255 25.2839 75.7255 24.7807ZM85.4112 28.9317H81.6376V13.2081H85.4112V28.9317Z" fill="white"/>
<path d="M90.9461 22.516V28.9312H89.5625V13.2075H94.9714C96.6066 13.2075 97.8646 13.585 98.8709 14.4655C99.8772 15.3459 100.254 16.4781 100.254 17.8618C100.254 19.3713 99.7513 20.5033 98.8709 21.2581C97.9904 22.0129 96.6066 22.516 94.9714 22.516H90.9461ZM90.9461 21.3839H94.9714C96.2293 21.3839 97.2356 21.1322 97.8646 20.5033C98.4935 19.8744 98.8709 18.9938 98.8709 17.9875C98.8709 16.8554 98.4935 15.9749 97.8646 15.3459C97.2356 14.7171 96.2293 14.3396 94.9714 14.3396H90.8204V21.3839H90.9461ZM110.192 28.9312C110.066 28.5538 109.94 28.0507 109.94 27.296C109.437 27.9249 108.934 28.3023 108.179 28.6796C107.425 29.057 106.796 29.1828 105.915 29.1828C104.783 29.1828 103.902 28.9312 103.148 28.3023C102.519 27.6733 102.141 26.9185 102.141 25.9122C102.141 24.7801 102.645 23.8996 103.525 23.2707C104.531 22.6417 105.789 22.2644 107.55 22.2644H109.94V20.8807C109.94 20.0001 109.689 19.3713 109.186 18.8681C108.682 18.365 107.928 18.1133 106.921 18.1133C106.041 18.1133 105.286 18.365 104.657 18.8681C104.028 19.3713 103.777 19.8744 103.777 20.5033H102.519C102.519 19.6228 102.896 18.7423 103.777 18.1133C104.657 17.4844 105.663 17.107 106.921 17.107C108.179 17.107 109.311 17.4844 109.94 18.1133C110.695 18.7423 111.072 19.6228 111.072 20.8807V26.4154C111.072 27.5475 111.198 28.428 111.45 28.9312V29.057H110.192V28.9312ZM106.167 28.0507C107.047 28.0507 107.802 27.7992 108.431 27.4217C109.06 27.0444 109.563 26.4154 109.94 25.7864V23.2707H107.676C106.418 23.2707 105.412 23.5223 104.657 24.0255C103.903 24.5286 103.525 25.1576 103.525 25.9122C103.525 26.5412 103.777 27.1702 104.28 27.5475C104.783 27.799 105.412 28.0507 106.167 28.0507ZM118.242 27.0444L121.639 17.2329H123.022L117.991 30.9439L117.739 31.5727C117.11 32.9565 116.104 33.7112 114.72 33.7112C114.469 33.7112 114.091 33.7112 113.714 33.5855V32.4533L114.343 32.579C114.972 32.579 115.475 32.4533 115.852 32.0759C116.23 31.8244 116.607 31.1954 116.859 30.4407L117.488 28.8055L113.085 17.2329H114.469L118.242 27.0444Z" fill="white"/>
<path d="M0.378418 0.126038V3.52234L2.39105 0.126038H0.378418Z" fill="#FFEF82"/>
<path d="M7.04309 4.78023V3.27076L5.28205 0.126038H2.26312L0.250488 3.52234V4.78023H7.04309Z" fill="#D3A609"/>
<path d="M11.3208 0.126038V2.26444L12.5787 0.126038H11.3208Z" fill="#D3A609"/>
<path d="M7.16973 0.252136H5.40869L7.16973 3.39687V0.252136Z" fill="#FFEF82"/>
<path d="M12.8305 6.28945H15.8495V4.65421H17.8621L15.2206 0H12.4532L11.1953 2.13842V6.28945H12.8305Z" fill="#FFEF82"/>
<path d="M19.875 4.77999L22.6424 0.125796L15.3467 0L17.9883 4.65421L19.875 4.77999Z" fill="#FFE000"/>
<path d="M22.5166 4.78023C23.5229 4.78023 24.4035 5.03181 25.1582 5.28339C25.7871 5.53498 26.4161 5.91234 26.9192 6.41549H28.9319L25.6613 0.503409C24.655 0.25183 23.6487 0.126038 22.6424 0.126038L19.875 4.78023H22.5166Z" fill="#D3A609"/>
<path d="M30.5672 3.64926C30.064 3.1461 29.5609 2.64294 28.9319 2.26557C27.9256 1.51083 26.7935 1.00768 25.5356 0.63031L28.8062 6.54241L30.5672 3.64926Z" fill="#FFEF82"/>
<path d="M32.7057 6.54104C32.2025 5.40894 31.4477 4.40263 30.5672 3.64789L28.8062 6.54104H32.7057Z" fill="#D3A609"/>
<path d="M0.251465 8.42773V10.4404L1.38355 8.42773H0.251465Z" fill="#D3A609"/>
<path d="M4.90585 14.9687V13.0819H6.6669L4.02532 8.42773H1.50954L0.377441 10.4404V14.9687H1.76113H4.90585Z" fill="#FFE000"/>
<path d="M10.5667 10.0632V8.55377H3.8999L6.54148 13.208H8.6799L10.5667 10.0632Z" fill="#FFEF82"/>
<path d="M11.1958 6.29056V8.429H10.5669V9.93847L12.8311 6.16479L11.1958 6.29056Z" fill="#D3A609"/>
<path d="M10.5665 13.0817H15.7238V11.5722L12.7049 6.28906L10.4407 10.0627V10.8175V10.0627L8.67969 13.0817H10.5665Z" fill="#FFE000"/>
<path d="M15.85 6.4151H12.8311L15.85 11.6982V6.4151Z" fill="#D3A609"/>
<path d="M28.9316 6.5412H26.9189C27.4221 6.91857 27.7994 7.42172 28.1768 7.92487C28.9316 9.05697 29.3089 10.3149 29.3089 11.6985C29.3089 12.0759 29.3089 12.4533 29.1831 12.8307L32.8309 6.66698C32.8309 6.66698 32.8309 6.5412 32.7051 6.5412H28.9316Z" fill="#FFE000"/>
<path d="M28.6802 14.3401C28.5544 14.5916 28.4286 14.8433 28.3027 15.2206H31.8249H33.3344C33.7117 14.0885 33.8375 12.9564 33.9633 11.6985C33.9633 10.0633 33.7117 8.55383 33.0829 7.17014C32.957 6.91857 32.957 6.79279 32.8312 6.5412L29.1833 12.7049C29.0575 13.3338 28.9317 13.837 28.6802 14.3401Z" fill="#FFEF82"/>
<path d="M0.251465 14.969V17.3589L1.63516 14.969H0.251465Z" fill="#D3A609"/>
<path d="M4.77988 23.6484V20.6295L1.63516 14.969L0.251465 17.3589V23.6484H0.628817H4.77988Z" fill="#FFEF82"/>
<path d="M9.56006 18.6149L9.68519 18.3647H9.56006V18.6149Z" fill="#7FCCE2"/>
<path d="M1.63574 14.969L4.78047 20.6295V14.969H1.63574Z" fill="#D3A609"/>
<path d="M16.2269 23.0189L13.5853 18.3647H9.68585L9.56006 18.6163V23.6479H10.6921H14.2143V22.8931L16.2269 23.0189Z" fill="#D3A609"/>
<path d="M13.5854 18.3647L16.227 23.0189H17.1075L19.8749 18.3647H13.5854Z" fill="#FFEF82"/>
<path d="M19.7492 18.4908L16.9819 23.145H22.2651C23.5229 23.145 24.7808 23.0191 25.913 22.6418L23.5229 18.4908C23.1456 18.6166 22.7682 18.6165 22.2651 18.6165L19.7492 18.4908Z" fill="#FFE000"/>
<path d="M28.3025 15.2211C27.7993 16.1016 27.0445 16.8563 26.164 17.3595C25.4092 17.8626 24.5288 18.24 23.5225 18.3658L25.9124 22.5168C26.164 22.391 26.5414 22.2652 26.793 22.2652C27.1703 22.1395 27.5477 21.8879 27.925 21.6363L31.6987 15.2211H28.3025Z" fill="#D3A609"/>
<path d="M27.9253 21.636C29.4347 20.7555 30.8184 19.4976 31.8247 18.1139C32.0763 17.7366 32.3278 17.2335 32.5795 16.7303L31.6989 15.095L27.9253 21.636Z" fill="#FFEF82"/>
<path d="M32.7052 16.8563C32.9567 16.3532 33.2083 15.85 33.3342 15.2211H31.8247L32.7052 16.8563Z" fill="#FFE000"/>
<path d="M0.126465 23.6491V24.2781L0.503855 23.6491H0.126465Z" fill="#42BDDA"/>
<path d="M4.78067 32.4547V31.1967L0.629613 23.7751L0.252261 24.4041L0.126465 32.4547H4.78067Z" fill="#FFE000"/>
<path d="M0.503418 23.6491L4.65444 31.0707L4.78023 23.6491H0.503418Z" fill="#D3A609"/>
<path d="M9.43457 25.5359L10.5667 23.6491H9.43457V25.5359Z" fill="#FFEF82"/>
<path d="M10.5665 23.7731L9.43435 25.6599L9.30859 32.4526H13.837V29.9367L10.5665 23.7731Z" fill="#D3A609"/>
<path d="M14.0885 29.9388V23.7751H10.5664L14.0885 29.9388Z" fill="#FFE000"/>
<path d="M0 39.6239H3.52212L0.125796 33.5861L0 39.6239Z" fill="#FFEF82"/>
<path d="M4.65469 34.9706V32.329H0.000488281V33.4611L3.39681 39.4989H5.15784L7.92523 34.8447L4.65469 34.9706Z" fill="#D3A609"/>
<path d="M9.43374 32.5793V35.095H8.0501L5.28271 39.7493L13.5848 39.8752L9.43374 32.5793Z" fill="#FFE000"/>
<path d="M13.5848 39.7493H13.9622L14.088 32.5793H9.55957L13.5848 39.7493Z" fill="#FFEF82"/>
<path d="M40.2524 40.0004H41.0072L41.3846 1.38318H40.6298L40.2524 40.0004Z" fill="url(#paint0_linear_201_1047)"/>
</g>
<defs>
<linearGradient id="paint0_linear_201_1047" x1="48.4727" y1="10.4879" x2="-2.65249" y2="78.6569" gradientUnits="userSpaceOnUse">
<stop stop-color="#FFDD00"/>
<stop offset="1" stop-color="#AD6818"/>
</linearGradient>
<clipPath id="clip0_201_1047">
<rect width="123.636" height="40" fill="white"/>
</clipPath>
</defs>
</svg>
