<svg width="80" height="80" viewBox="0 0 80 80" fill="none" xmlns="http://www.w3.org/2000/svg">
<rect width="80" height="80" rx="40" fill="#FFDF35"/>
<g clip-path="url(#clip0_266_380)">
<path d="M45.0797 16.4771C45.5325 16.6383 45.9683 16.8428 46.381 17.0879C46.5275 17.1717 46.6937 17.2158 46.8629 17.2158C47.0321 17.2158 47.1983 17.1717 47.3449 17.0879C48.7618 16.5152 49.6968 17.2406 49.5329 18.7773C49.418 19.6085 49.1639 20.415 48.7811 21.1635C48.3773 21.9762 47.9234 22.7635 47.422 23.521C47.287 23.7214 47.2389 23.8455 47.422 24.046C47.6652 24.283 47.8493 24.5729 47.9597 24.8926C48.0701 25.2124 48.1039 25.5532 48.0582 25.8881C48.0375 26.0131 48.056 26.1414 48.1111 26.2557C48.1662 26.37 48.2554 26.4649 48.3666 26.5276C49.0092 27.0557 49.6518 27.5902 50.2944 28.1311C50.7378 28.5033 50.8053 28.9042 50.4968 29.2478C50.1884 29.5914 49.8221 29.5437 49.398 29.1905C48.7715 28.6846 48.1546 28.1788 47.5377 27.692C47.4413 27.6156 47.3449 27.4725 47.1617 27.587C46.1831 28.1176 45.0869 28.3997 43.9712 28.4079C42.1378 28.5944 40.286 28.4881 38.4866 28.0929C38.3646 28.0906 38.2453 28.0577 38.1396 27.9974C37.4456 27.4629 36.9829 27.9306 36.4817 28.341C33.593 30.5836 31.2011 33.3906 29.4548 36.5876C28.1468 38.9799 27.4829 41.6655 27.527 44.3856V44.6337C27.527 45.3591 27.527 45.3591 28.2885 45.5882C29.6489 46.0088 30.9458 46.6091 32.1441 47.3731C33.4456 48.1451 34.911 48.6059 36.4238 48.7188C38.7276 48.9479 41.0313 49.1865 43.3158 49.5301C44.3085 49.7028 45.2065 50.2207 45.8479 50.9906C46.4894 51.7605 46.8322 52.7318 46.8147 53.7298V54.0543C46.8147 54.2929 46.8629 54.3502 47.1039 54.2452L55.2682 50.6755C55.4309 50.5951 55.5629 50.4644 55.6441 50.3033C57.1099 47.9894 57.7166 45.2424 57.3599 42.5339C56.9068 38.3343 54.873 34.8982 52.1259 31.7771C52.0057 31.6568 51.893 31.5293 51.7885 31.3953C51.6816 31.2585 51.6316 31.0863 51.6488 30.9141C51.666 30.7419 51.749 30.5828 51.8809 30.4693C52.0128 30.3558 52.1835 30.2965 52.3581 30.3037C52.5327 30.3108 52.6979 30.3838 52.8199 30.5077C53.1476 30.8322 53.4464 31.1853 53.7838 31.5385C56.068 34.126 57.6824 37.2248 58.4876 40.5677C59.1962 43.5202 58.9223 46.6203 57.7069 49.4061V49.5111C58.0153 49.5779 58.2274 49.3679 58.4683 49.2724C59.2164 48.89 60.078 48.785 60.8974 48.9766C61.4392 49.1151 61.926 49.4125 62.2941 49.8298C62.6622 50.2471 62.8944 50.7648 62.9601 51.315C63.0832 51.8591 63.0314 52.4277 62.8119 52.9411C62.5924 53.4546 62.2162 53.8872 61.736 54.1784C57.4884 56.8572 53.2279 59.5329 48.9546 62.2054C47.5678 63.0826 45.9541 63.5434 44.3086 63.5321C41.2434 63.5321 38.1781 63.5321 35.1226 63.5321C33.4412 63.5667 31.7698 63.2682 30.2067 62.654C28.3656 61.9095 26.486 61.2796 24.6353 60.5733C24.2979 60.4492 24.2208 60.4778 24.1726 60.8501C24.1331 61.3446 23.9007 61.8045 23.5247 62.1324C23.1486 62.4602 22.6585 62.6302 22.158 62.6063H19.0446C18.7804 62.6247 18.5151 62.5889 18.2654 62.5012C18.0157 62.4135 17.7869 62.2758 17.5934 62.0967C17.3998 61.9176 17.2456 61.7009 17.1404 61.4601C17.0352 61.2194 16.9812 60.9597 16.9819 60.6974V44.6337C16.9689 44.3714 17.0087 44.1092 17.0988 43.8622C17.189 43.6152 17.3277 43.3883 17.507 43.1948C17.6863 43.0013 17.9026 42.8449 18.1434 42.7347C18.3842 42.6246 18.6446 42.5628 18.9097 42.553C18.9865 42.5438 19.0642 42.5438 19.141 42.553H22.0327C22.3005 42.5309 22.57 42.5621 22.8254 42.6447C23.0809 42.7272 23.317 42.8596 23.52 43.0339C23.723 43.2082 23.8887 43.421 24.0074 43.6597C24.1261 43.8984 24.1954 44.1582 24.2112 44.4238C24.216 44.4937 24.216 44.5638 24.2112 44.6337C24.2112 44.9105 24.2883 45.006 24.5774 45.006C25.0386 45.0208 25.4987 45.059 25.9558 45.1205C26.1583 45.1205 26.2257 45.1205 26.2161 44.8819C25.9655 38.7161 28.809 33.896 32.9634 29.6105C33.9644 28.5864 35.0336 27.6298 36.1636 26.7471C36.2779 26.6643 36.3873 26.5751 36.4913 26.4798C35.0358 26.308 32.0863 26.9475 30.9971 28.7228C30.7175 29.1905 30.3223 29.2955 29.956 29.0473C29.5898 28.7992 29.5512 28.4079 29.85 27.9688C30.3256 27.2921 30.933 26.7163 31.6365 26.2754C32.34 25.8345 33.1254 25.5373 33.9466 25.4013C34.7906 25.2075 35.6539 25.1083 36.5202 25.1054C36.2304 24.6824 35.8473 24.3303 35.3997 24.0756C34.9522 23.821 34.4519 23.6705 33.937 23.6355C33.2815 23.6355 32.6164 23.731 31.9513 23.6355C30.9254 23.5454 29.935 23.2185 29.0596 22.6811C28.9699 22.645 28.8887 22.5911 28.821 22.5226C28.7534 22.4541 28.7007 22.3725 28.6663 22.2829C28.632 22.1933 28.6166 22.0977 28.6213 22.002C28.6259 21.9062 28.6504 21.8125 28.6933 21.7266V21.6407C28.7894 21.4827 28.9448 21.3689 29.1255 21.3242C29.3062 21.2794 29.4974 21.3074 29.6572 21.4021L29.7536 21.4689C30.7409 22.0844 31.9099 22.3502 33.0695 22.2229C33.7953 22.1367 34.5314 22.2195 35.2192 22.4647C35.907 22.71 36.5274 23.1109 37.0311 23.6355C37.166 23.7692 37.2721 23.8455 37.4552 23.7023C37.6384 23.5592 37.4552 23.4255 37.4552 23.3301C36.6297 22.1099 36.0081 20.766 35.6142 19.35C35.4561 18.8016 35.4729 18.2182 35.6624 17.6797C35.7071 17.511 35.7898 17.3546 35.9043 17.2221C36.0189 17.0897 36.1622 16.9846 36.3236 16.9148C36.4849 16.845 36.6602 16.8123 36.8361 16.8191C37.0121 16.826 37.1842 16.8722 37.3396 16.9543C37.61 17.118 37.9254 17.194 38.2416 17.1717C38.5578 17.1495 38.8591 17.0301 39.1035 16.8302C39.3196 16.6962 39.5489 16.5842 39.7879 16.4961H40.7518C41.2084 16.6395 41.648 16.8315 42.0627 17.0688C42.1801 17.1445 42.3146 17.1902 42.4542 17.2019C42.5938 17.2135 42.7342 17.1908 42.8627 17.1356L44.058 16.4866L45.0797 16.4771ZM18.3603 52.5558V60.411C18.3603 61.0505 18.5338 61.2223 19.1892 61.2223H21.8785C22.6304 61.2223 22.8424 61.0505 22.8424 60.2679V51.4868C22.8371 51.3102 22.9017 51.1386 23.0223 51.0084C23.1429 50.8783 23.3101 50.7999 23.4882 50.79C23.6696 50.7844 23.8463 50.8474 23.9824 50.9662C24.1185 51.085 24.2037 51.2507 24.2208 51.4295C24.2304 51.5662 24.2304 51.7033 24.2208 51.8399V58.5212C24.198 58.6438 24.2246 58.7704 24.2949 58.8738C24.3651 58.9773 24.4735 59.0494 24.5967 59.0748L31.2573 61.5278C32.1615 61.8915 33.1251 62.0888 34.1008 62.11H44.3568C45.6602 62.133 46.9425 61.7816 48.0485 61.0982L60.9167 53.033C61.2089 52.8405 61.4245 52.5534 61.5264 52.2208C61.6284 51.8882 61.6105 51.5309 61.4757 51.21C61.3724 50.8728 61.144 50.5869 60.8364 50.4098C60.5288 50.2327 60.1648 50.1776 59.8178 50.2555C59.5019 50.3227 59.1947 50.4252 58.9021 50.561L46.7087 55.9346C46.4058 56.0694 46.0769 56.1378 45.7448 56.135H38.3517C37.8311 56.135 37.5323 55.8296 37.5709 55.3905C37.6094 54.9515 37.8697 54.7701 38.3902 54.7701H44.4532C45.4171 54.7701 45.4171 54.7701 45.4171 53.8157C45.4367 53.1024 45.1866 52.4076 44.7159 51.8674C44.2452 51.3271 43.5878 50.9804 42.8724 50.895C41.4843 50.7137 40.077 50.5801 38.689 50.4178C37.301 50.2555 36.0672 50.1505 34.7756 49.9501C33.3388 49.627 31.9757 49.0411 30.7561 48.2225C28.9227 47.1038 26.8342 46.4604 24.6835 46.3518C24.2979 46.3518 24.1437 46.3518 24.1822 46.8004C24.2112 47.2453 24.2112 47.6917 24.1822 48.1366C24.1822 48.6711 23.922 48.9766 23.4882 48.9766C23.0545 48.9766 22.7942 48.6807 22.7942 48.1366V44.7387C22.7942 44.1565 22.5725 43.937 21.9749 43.9274H19.2374C18.5338 43.9274 18.3506 44.1183 18.3506 44.8246L18.3603 52.5558ZM42.5254 23.7501C43.6039 23.7063 44.6756 23.5592 45.7255 23.311C45.8797 23.311 45.9183 23.1774 45.9858 23.0819C46.5531 22.2607 47.0589 21.3994 47.4991 20.5049C47.809 19.9056 48.0205 19.2612 48.1256 18.596C48.1256 18.3478 48.1256 18.2142 47.8172 18.3383C47.4347 18.5188 47.0103 18.5946 46.5882 18.5576C46.1661 18.5207 45.7617 18.3724 45.4171 18.1283C45.2 17.9634 44.934 17.8741 44.6604 17.8741C44.3868 17.8741 44.1208 17.9634 43.9037 18.1283C43.504 18.4098 43.0256 18.5611 42.535 18.5611C42.0444 18.5611 41.566 18.4098 41.1663 18.1283C40.9265 17.9479 40.6336 17.8503 40.3325 17.8503C40.0313 17.8503 39.7385 17.9479 39.4987 18.1283C39.2214 18.3197 38.9047 18.448 38.5715 18.5041C38.2382 18.5602 37.8965 18.5427 37.5709 18.4528C37.3492 18.4051 37.0793 18.0806 36.8962 18.3383C36.713 18.596 36.8962 18.8632 36.9733 19.1305C36.9945 19.2176 37.0203 19.3036 37.0504 19.3882C37.5293 20.7116 38.1772 21.969 38.9782 23.1297C39.025 23.1982 39.0864 23.2559 39.1579 23.2988C39.2295 23.3416 39.3096 23.3686 39.3927 23.3778C40.4209 23.6088 41.4711 23.7304 42.5254 23.7405V23.7501ZM42.1976 27.0716H42.9495C43.9831 27.0436 45.0094 26.8898 46.0051 26.6135C46.2479 26.5444 46.4537 26.3837 46.5781 26.1659C46.7025 25.9481 46.7355 25.6907 46.6701 25.449V25.3631C46.6515 25.2564 46.6118 25.1544 46.5532 25.0629C46.4946 24.9715 46.4183 24.8925 46.3287 24.8304C46.2391 24.7682 46.1379 24.7243 46.0311 24.7011C45.9243 24.6778 45.8139 24.6758 45.7062 24.695H45.5906C45.0026 24.8095 44.4146 24.9241 43.817 25.01C42.1754 25.2033 40.5118 25.0933 38.9107 24.6854C38.7238 24.6226 38.5197 24.633 38.3404 24.7147C38.1611 24.7964 38.0202 24.9431 37.9468 25.1245C37.8705 25.2336 37.818 25.3572 37.7927 25.4875C37.7673 25.6178 37.7697 25.7519 37.7996 25.8812C37.8296 26.0105 37.8864 26.1323 37.9665 26.2386C38.0466 26.345 38.1482 26.4336 38.2649 26.4989C38.3663 26.5582 38.4771 26.6001 38.5926 26.623C39.7731 26.9215 40.9892 27.0595 42.2073 27.0334L42.1976 27.0716Z" fill="#161616" stroke="#161616" stroke-miterlimit="10"/>
<path d="M41.7252 41.8181V39.432C41.7383 39.3366 41.7162 39.2398 41.6631 39.1591C41.6101 39.0785 41.5294 39.0195 41.4361 38.9929C41.089 38.8306 40.7517 38.6398 40.4143 38.4584C38.1877 37.2844 38.5636 34.4592 40.0095 33.247C40.411 32.8945 40.9001 32.654 41.4264 32.5503C41.6867 32.493 41.8023 32.3785 41.7541 32.1112C41.7349 31.8825 41.7349 31.6527 41.7541 31.424C41.7515 31.2484 41.8188 31.0789 41.9415 30.9521C42.0642 30.8252 42.2323 30.7513 42.4096 30.7463C42.5779 30.7473 42.7401 30.8089 42.866 30.9195C42.9919 31.0301 43.0729 31.1823 43.094 31.3477V31.4336C42.9108 32.2162 43.2964 32.5216 44.0579 32.6457C44.5132 32.7444 44.9349 32.9581 45.282 33.2661C45.3626 33.3117 45.4334 33.3725 45.4901 33.4452C45.5469 33.5179 45.5885 33.601 45.6127 33.6897C45.6369 33.7784 45.6431 33.871 45.6311 33.9621C45.619 34.0532 45.5888 34.1411 45.5423 34.2206C45.5299 34.2511 45.5137 34.28 45.4941 34.3065C45.3818 34.448 45.218 34.5403 45.0377 34.5635C44.8575 34.5867 44.6753 34.539 44.5302 34.4306H44.4724C44.1723 34.1991 43.8414 34.0096 43.4892 33.8674C43.2386 33.7911 43.1711 33.8674 43.1711 34.1156V37.9335C43.1626 38.0228 43.1888 38.1119 43.2443 38.1828C43.2998 38.2537 43.3804 38.3011 43.4699 38.3152C43.78 38.4039 44.0828 38.5156 44.376 38.6493C45.0053 38.8992 45.5447 39.3301 45.9244 39.8864C46.3041 40.4427 46.5067 41.0989 46.5062 41.7704C46.549 42.5291 46.371 43.284 45.9934 43.9455C45.6158 44.607 45.0544 45.1473 44.376 45.5024C44.1966 45.6258 43.993 45.7104 43.7783 45.7505C43.1711 45.8078 43.065 46.1514 43.1325 46.705C43.1707 46.8972 43.1707 47.095 43.1325 47.2872C43.0956 47.4466 42.9975 47.5855 42.8589 47.6745C42.7204 47.7636 42.5524 47.7958 42.3903 47.7644C42.2357 47.7509 42.0912 47.6827 41.9832 47.5723C41.8752 47.4618 41.811 47.3166 41.8023 47.1631C41.7541 46.7813 41.9662 46.285 41.7156 46.0559C41.465 45.8269 40.983 45.9128 40.6071 45.8364C39.9937 45.6842 39.4148 45.4187 38.901 45.0538C38.8162 45.0125 38.7407 44.9546 38.6793 44.8835C38.6179 44.8124 38.5718 44.7297 38.5438 44.6403C38.5158 44.5509 38.5066 44.4569 38.5166 44.3638C38.5267 44.2708 38.5558 44.1808 38.6022 44.0993C38.6448 44.0162 38.7039 43.9425 38.7758 43.8825C38.8477 43.8224 38.9311 43.7773 39.021 43.7497C39.1109 43.7221 39.2054 43.7126 39.299 43.7219C39.3927 43.7311 39.4835 43.7588 39.5661 43.8034L39.6625 43.8607C40.2004 44.217 40.8079 44.4576 41.4457 44.567C41.7734 44.6147 41.8216 44.567 41.8216 44.2234C41.7156 43.4025 41.7252 42.6103 41.7252 41.8181ZM43.1229 44.4429C43.663 44.3033 44.1449 43.9983 44.4997 43.5716C44.8545 43.1448 45.0642 42.618 45.0989 42.0663C45.1466 41.5566 45.0114 41.0466 44.717 40.626C44.4226 40.2053 43.9878 39.9008 43.4892 39.766C43.2771 39.6897 43.1614 39.6515 43.1614 39.9569C43.1229 41.4459 43.1229 42.9444 43.1229 44.4429ZM41.7252 37.5803V34.3065C41.7252 33.8674 41.6674 33.8197 41.2722 34.0583C40.9355 34.2467 40.6604 34.5265 40.4793 34.8648C40.2983 35.2031 40.2188 35.5857 40.2504 35.9673C40.289 36.9122 40.9927 37.2081 41.7252 37.5803Z" fill="#161616" stroke="#161616" stroke-miterlimit="10"/>
</g>
<defs>
<clipPath id="clip0_266_380">
<rect width="47" height="48" fill="white" transform="translate(16.5 16)"/>
</clipPath>
</defs>
</svg>
