<svg width="18" height="18" viewBox="0 0 18 18" fill="none" xmlns="http://www.w3.org/2000/svg">
<path d="M12.75 18H5.25C2.375 18 0 15.6168 0 12.7317V5.26831C0 2.38328 2.375 0 5.25 0H12.75C15.625 0 18 2.38328 18 5.26831V12.7317C18 15.6168 15.625 18 12.75 18ZM5.25 1.63067C3.25 1.63067 1.625 3.26133 1.625 5.26831V12.7317C1.625 14.7387 3.25 16.3694 5.25 16.3694H12.75C14.75 16.3694 16.375 14.7387 16.375 12.7317V5.26831C16.375 3.26133 14.75 1.63067 12.75 1.63067H5.25Z" fill="#5C5C5C"/>
<path d="M8.99998 13.7223C6.22972 13.7223 4 11.5896 4 8.93992C4 6.35489 6.22972 4.22223 8.99998 4.22223C11.7703 4.22223 14 6.35488 14 9.00454C14 11.5896 11.7703 13.7223 8.99998 13.7223ZM8.99998 5.83787C7.17566 5.83787 5.75675 7.25964 5.75675 8.93992C5.75675 10.6848 7.24323 12.0419 8.99998 12.0419C10.8243 12.0419 12.2432 10.6202 12.2432 8.93992C12.2432 7.25964 10.7567 5.83787 8.99998 5.83787Z" fill="#5C5C5C"/>
<path d="M13.75 5.13574C14.3022 5.13574 14.75 4.68802 14.75 4.13574C14.75 3.58345 14.3022 3.13574 13.75 3.13574C13.1977 3.13574 12.75 3.58345 12.75 4.13574C12.75 4.68802 13.1977 5.13574 13.75 5.13574Z" fill="#5C5C5C"/>
</svg>
