<svg width="18" height="18" viewBox="0 0 18 18" fill="none" xmlns="http://www.w3.org/2000/svg">
<path d="M16.6286 0.193359H1.37143C0.685713 0.193359 0 0.686629 0 1.34432V16.1424C0 16.8001 0.514284 17.2933 1.37143 17.2933H16.6286C17.3143 17.2933 18 16.8001 18 16.1424V1.34432C18 0.686629 17.4857 0.193359 16.6286 0.193359ZM5.65714 14.6626H2.91429V6.77029H5.65714V14.6626ZM4.28571 5.78374C3.42857 5.78374 2.74286 5.12605 2.74286 4.46836C2.74286 3.64624 3.25714 3.15298 4.28571 3.15298C5.14286 3.15298 5.82857 3.81066 5.82857 4.46836C5.82857 5.12605 5.14286 5.78374 4.28571 5.78374ZM15.2572 14.6626H12.5143V10.3876C12.5143 9.40104 12.1714 8.57894 11.1429 8.57894C10.4571 8.57894 9.94284 9.07218 9.77139 9.56547C9.77139 9.7299 9.60003 9.89433 9.60003 10.2232V14.4982H6.85714C6.85714 14.4982 6.85714 7.42798 6.85714 6.77029H9.60003V7.92124C9.94284 7.42798 10.6285 6.60586 12 6.60586C13.7143 6.60586 15.0857 7.75682 15.0857 10.0588V14.6626H15.2572Z" fill="#5C5C5C"/>
</svg>
