<svg width="18" height="18" viewBox="0 0 18 18" fill="none" xmlns="http://www.w3.org/2000/svg">
<path d="M18.0004 2.83904C17.3059 3.25422 16.6114 3.46181 15.9169 3.66941C16.6114 3.04663 17.1323 2.21626 17.4795 1.1783C16.7851 1.80107 16.0905 2.00867 15.2224 2.21626C14.5279 1.38589 13.6598 0.970703 12.6181 0.970703C10.7082 0.970703 9.14553 2.83904 9.14553 5.12255C9.14553 5.53774 9.14553 5.74533 9.31915 6.16052C6.36753 5.95292 3.76315 4.29218 2.0269 1.80107C1.67965 2.42385 1.50602 3.04663 1.50602 3.877C1.50602 5.33015 2.20052 6.5757 3.06865 7.40607C2.54777 7.19848 2.0269 7.19848 1.50602 6.78329C1.50602 8.85922 2.7214 10.52 4.28403 10.9351C3.93678 10.9351 3.76315 11.1427 3.4159 11.1427C3.24228 11.1427 2.89503 11.1427 2.7214 11.1427C3.24228 12.8035 4.45765 14.049 6.02027 14.049C4.8049 15.087 3.24228 15.7098 1.67965 15.7098C1.3324 15.7098 1.15877 15.7098 0.811523 15.7098C2.37415 16.9553 4.28403 17.5781 6.1939 17.5781C12.6181 17.5781 16.2641 11.1427 16.2641 5.53774C16.2641 5.33015 16.2641 5.12255 16.2641 4.91496C16.9587 4.49978 17.4795 3.66941 18.0004 2.83904Z" fill="#5C5C5C"/>
</svg>
