<svg width="24" height="30" viewBox="0 0 24 30" fill="none" xmlns="http://www.w3.org/2000/svg">
<path d="M17.8558 7.30821C17.4166 6.9733 17.3322 6.34579 17.6671 5.90665C18.0019 5.4675 18.6295 5.38301 19.0686 5.71791C21.9439 7.91078 23.6663 11.3135 23.6663 14.9998C23.6663 21.1202 18.9535 26.1398 12.9589 26.6276L13.9593 27.6261L14.0561 27.7382C14.3465 28.1297 14.3142 28.6853 13.9593 29.0402C13.5687 29.4308 12.9355 29.4308 12.545 29.0402L9.87834 26.3736L9.78154 26.2614C9.49101 25.87 9.52328 25.3144 9.87834 24.9594L10.3223 24.5154C10.8671 24.6109 11.4278 24.6606 11.9999 24.6606C12.3595 24.6606 12.7146 24.641 13.0641 24.6026L13.0574 24.6093C17.8986 24.0825 21.6663 19.9812 21.6663 14.9998C21.6663 11.9441 20.2402 9.1267 17.8558 7.30821ZM10.0401 2.37361C9.64954 1.98309 9.64954 1.34991 10.0401 0.959394C10.4306 0.568874 11.0638 0.568874 11.4543 0.959394L14.121 3.62606C14.5115 4.01658 14.5115 4.64975 14.121 5.04027L13.6766 5.48465C13.1321 5.38937 12.5718 5.33967 11.9999 5.33967C11.6394 5.33967 11.2835 5.35943 10.9333 5.39791L10.9406 5.39051C6.1001 5.91798 2.33301 10.019 2.33301 14.9998C2.33301 17.9228 3.63691 20.6304 5.84781 22.4566C6.27361 22.8084 6.33365 23.4388 5.98193 23.8645C5.63019 24.2904 4.99989 24.3504 4.57409 23.9986C1.90802 21.7964 0.333008 18.5258 0.333008 14.9998C0.333008 8.87994 5.04513 3.86063 11.0391 3.37214L10.0401 2.37361ZM16.0401 13.7069C16.4306 13.3164 16.4306 12.6833 16.0401 12.2927C15.6495 11.9022 15.0165 11.9022 14.6259 12.2927L10.6663 16.2522L9.37341 14.9594C8.98293 14.5689 8.34976 14.5689 7.95924 14.9594C7.56872 15.35 7.56872 15.983 7.95924 16.3736L9.95927 18.3736C10.3498 18.7641 10.9829 18.7641 11.3734 18.3736L16.0401 13.7069ZM11.9997 22.9998C16.4179 22.9998 19.9997 19.4181 19.9997 14.9998C19.9997 10.5816 16.4179 6.99983 11.9997 6.99983C7.58139 6.99983 3.99967 10.5816 3.99967 14.9998C3.99967 19.4181 7.58139 22.9998 11.9997 22.9998ZM11.9997 20.9998C8.68597 20.9998 5.99967 18.3136 5.99967 14.9998C5.99967 11.6861 8.68597 8.99983 11.9997 8.99983C15.3134 8.99983 17.9997 11.6861 17.9997 14.9998C17.9997 18.3136 15.3134 20.9998 11.9997 20.9998Z" fill="#161616"/>
</svg>
