<svg width="22" height="28" viewBox="0 0 22 28" fill="none" xmlns="http://www.w3.org/2000/svg">
<path d="M4.8999 1.77386C5.13644 1.10989 5.76506 0.666504 6.46992 0.666504H15.0748C16.2124 0.666504 17.0156 1.781 16.6558 2.86021L14.7205 8.6665H19.9988C21.471 8.6665 22.2202 10.4356 21.1958 11.4929L6.44784 26.7145C5.04285 28.1646 2.61857 26.8561 3.05977 24.8858L4.75208 17.3284L2.66081 17.3204C1.05181 17.3142 -0.068231 15.7197 0.471729 14.2041L4.8999 1.77386ZM6.70502 2.6665L2.35574 14.8752C2.27861 15.0917 2.43862 15.3196 2.66848 15.3204L6.00353 15.3332C6.30646 15.3344 6.59254 15.4728 6.78145 15.7096C6.97036 15.9464 7.04173 16.2561 6.97553 16.5517L5.01145 25.3229L19.2117 10.6665H13.333C13.0116 10.6665 12.7097 10.512 12.5218 10.2512C12.3338 9.99045 12.2828 9.65522 12.3844 9.35028L14.6122 2.6665H6.70502Z" fill="#161616"/>
</svg>
