<svg width="28" height="28" viewBox="0 0 28 28" fill="none" xmlns="http://www.w3.org/2000/svg">
<path d="M25.3337 11.9998C25.3337 5.74061 20.2595 0.666504 14.0003 0.666504C7.7411 0.666504 2.66699 5.74061 2.66699 11.9998C2.66699 14.7965 3.67997 17.3566 5.35903 19.3332C5.38278 19.3612 5.40665 19.3889 5.43066 19.4166C6.05083 20.1326 6.75923 20.7701 7.53894 21.3121C9.37187 22.5862 11.5989 23.3332 14.0003 23.3332C16.4018 23.3332 18.6289 22.5862 20.4617 21.3121C20.495 21.2889 20.5281 21.2657 20.561 21.2422C21.3317 20.6942 22.0307 20.0524 22.6417 19.3332C24.3207 17.3566 25.3337 14.7965 25.3337 11.9998ZM15.9619 19.1621C15.0742 21.0486 14.2434 21.3332 14.0003 21.3332C13.7573 21.3332 12.9265 21.0486 12.0387 19.1621C11.6294 18.2924 11.2849 17.2201 11.0435 15.9998H16.9571C16.7158 17.2201 16.3713 18.2924 15.9619 19.1621ZM10.667 11.9998C10.667 11.3102 10.6985 10.6417 10.7574 9.99984H17.2433C17.3022 10.6417 17.3337 11.3102 17.3337 11.9998C17.3337 12.6894 17.3022 13.358 17.2433 13.9998H10.7574C10.6985 13.358 10.667 12.6894 10.667 11.9998ZM17.4275 20.6838C18.1222 19.4445 18.6661 17.8357 18.9919 15.9998H22.4355C21.4243 18.1284 19.6313 19.8134 17.4275 20.6838ZM19.2509 13.9998C19.3053 13.3506 19.3337 12.6822 19.3337 11.9998C19.3337 11.3174 19.3053 10.649 19.2509 9.99984H23.1189C23.2595 10.6441 23.3337 11.3133 23.3337 11.9998C23.3337 12.6864 23.2595 13.3556 23.1189 13.9998H19.2509ZM4.88178 13.9998C4.74111 13.3556 4.66699 12.6864 4.66699 11.9998C4.66699 11.3133 4.74111 10.6441 4.88178 9.99984H8.74978C8.69538 10.649 8.66699 11.3174 8.66699 11.9998C8.66699 12.6822 8.69538 13.3506 8.74978 13.9998H4.88178ZM9.00867 15.9998C9.33463 17.8357 9.87846 19.4445 10.5732 20.6838C8.36938 19.8134 6.57631 18.1284 5.56517 15.9998H9.00867ZM16.9571 7.99984H11.0435C11.2849 6.7796 11.6294 5.70736 12.0387 4.83756C12.9265 2.9511 13.7573 2.6665 14.0003 2.6665C14.2434 2.6665 15.0742 2.9511 15.9619 4.83756C16.3713 5.70736 16.7158 6.7796 16.9571 7.99984ZM22.4355 7.99984H18.9919C18.6661 6.16393 18.1222 4.55514 17.4275 3.31581C19.6313 4.18625 21.4243 5.87133 22.4355 7.99984ZM9.00867 7.99984H5.56517C6.57631 5.87133 8.36938 4.18626 10.5732 3.31582C9.87846 4.55514 9.33463 6.16393 9.00867 7.99984ZM3.33367 19.3332H3.67113C4.1885 20.0606 4.78078 20.731 5.43673 21.3332H4.09375L2.98265 25.3332H25.0181L23.9069 21.3332H22.5639C23.2199 20.731 23.8122 20.0606 24.3295 19.3332H24.667C25.1162 19.3332 25.5103 19.6328 25.6305 20.0656L27.2971 26.0656C27.3809 26.3666 27.3189 26.6896 27.1298 26.9382C26.9407 27.187 26.6462 27.3332 26.3337 27.3332H1.66701C1.3545 27.3332 1.05998 27.187 0.870872 26.9382C0.681765 26.6896 0.619845 26.3666 0.703485 26.0656L2.37015 20.0656C2.49038 19.6328 2.88446 19.3332 3.33367 19.3332Z" fill="#161616"/>
</svg>
