<svg width="26" height="20" viewBox="0 0 26 20" fill="none" xmlns="http://www.w3.org/2000/svg">
<path d="M13.8002 8.12126L15.1981 9.71889C15.4892 10.0514 15.9944 10.085 16.3271 9.79416C16.6596 9.5032 16.6932 8.99779 16.4023 8.66528L13.6023 5.46528C13.4504 5.29168 13.2309 5.19209 13.0002 5.19209C12.7695 5.19209 12.5501 5.29168 12.3981 5.46528L9.59815 8.66528C9.3072 8.99779 9.3409 9.5032 9.6734 9.79416C10.0059 10.085 10.5113 10.0514 10.8023 9.71889L12.2002 8.12123V14.0077C12.2002 14.4495 12.5584 14.8077 13.0002 14.8077C13.4421 14.8077 13.8002 14.4495 13.8002 14.0077V8.12126ZM3.4002 19.5999C1.63288 19.5999 0.200195 18.1673 0.200195 16.3999V3.5999C0.200195 1.83259 1.63288 0.399902 3.4002 0.399902H22.6002C24.3676 0.399902 25.8002 1.83259 25.8002 3.5999V16.3999C25.8002 18.1673 24.3676 19.5999 22.6002 19.5999H3.4002ZM1.8002 16.3999C1.8002 17.2836 2.51655 17.9999 3.4002 17.9999H22.6002C23.4839 17.9999 24.2002 17.2836 24.2002 16.3999V8.3999H18.0664C17.968 8.11811 17.8151 7.85008 17.6064 7.61168L16.896 6.7999H24.2002V3.5999C24.2002 2.71624 23.4839 1.9999 22.6002 1.9999H3.4002C2.51655 1.9999 1.8002 2.71625 1.8002 3.5999V6.7999H9.10434L8.39405 7.61168C8.18544 7.85008 8.03247 8.11811 7.93407 8.3999H1.8002V16.3999Z" fill="#161616"/>
</svg>
