<svg width="28" height="20" viewBox="0 0 28 20" fill="none" xmlns="http://www.w3.org/2000/svg">
<path d="M5.98645 0.571699C6.37698 0.962232 6.37698 1.59539 5.98645 1.98591C1.56051 6.41186 1.56051 13.5878 5.98645 18.0136C6.37698 18.4042 6.37698 19.0374 5.98645 19.4279C5.59593 19.8184 4.96277 19.8184 4.57223 19.4279C-0.634754 14.2208 -0.634754 5.7787 4.57223 0.571699C4.96277 0.181179 5.59593 0.181179 5.98645 0.571699ZM23.4285 0.571699C28.6354 5.7787 28.6354 14.2208 23.4285 19.4279C23.0379 19.8184 22.4047 19.8184 22.0142 19.4279C21.6237 19.0374 21.6237 18.4042 22.0142 18.0136C26.4402 13.5878 26.4402 6.41186 22.0142 1.98591C21.6237 1.59539 21.6237 0.962232 22.0142 0.571699C22.4047 0.181179 23.0379 0.181179 23.4285 0.571699ZM9.75768 4.34294C10.1482 4.73346 10.1482 5.36663 9.75768 5.75715C7.41454 8.1003 7.41454 11.8992 9.75768 14.2424C10.1482 14.633 10.1482 15.2662 9.75768 15.6567C9.36716 16.0472 8.73399 16.0472 8.34347 15.6567C5.21927 12.5324 5.21927 7.4671 8.34347 4.34294C8.73399 3.95242 9.36716 3.95242 9.75768 4.34294ZM19.6571 4.34294C22.7814 7.4671 22.7814 12.5324 19.6571 15.6567C19.2666 16.0472 18.6335 16.0472 18.243 15.6567C17.8525 15.2662 17.8525 14.633 18.243 14.2424C20.5861 11.8992 20.5861 8.1003 18.243 5.75715C17.8525 5.36663 17.8525 4.73346 18.243 4.34294C18.6335 3.95242 19.2666 3.95242 19.6571 4.34294ZM14.0003 7.99976C15.1049 7.99976 16.0003 8.89523 16.0003 9.99977C16.0003 11.1043 15.1049 11.9998 14.0003 11.9998C12.8958 11.9998 12.0003 11.1043 12.0003 9.99977C12.0003 8.89523 12.8958 7.99976 14.0003 7.99976Z" fill="#161616"/>
</svg>
