<svg width="25" height="27" viewBox="0 0 25 27" fill="none" xmlns="http://www.w3.org/2000/svg">
<path d="M15.1409 2.46062C15.2593 2.31031 15.4797 2.29032 15.6233 2.41688L16.8513 3.4998L12.9844 8.3335H15.5456L18.3531 4.82412L20.556 6.76668C20.6915 6.88616 20.7072 7.0918 20.5913 7.23043L19.6697 8.3335H22.262C22.9207 7.37207 22.7704 6.0528 21.8788 5.26662L16.9461 0.916816C15.9415 0.0308964 14.3988 0.170774 13.57 1.22295L7.96827 8.3335H10.5144L15.1409 2.46062ZM17.6667 17.6668C17.1144 17.6668 16.6667 18.1146 16.6667 18.6668C16.6667 19.2191 17.1144 19.6668 17.6667 19.6668H20.3333C20.8856 19.6668 21.3333 19.2191 21.3333 18.6668C21.3333 18.1146 20.8856 17.6668 20.3333 17.6668H17.6667ZM2 8.66683C2 8.11455 2.44772 7.66683 3 7.66683H7.17125L8.76 5.66683H3C1.34315 5.66683 0 7.00998 0 8.66683V22.6668C0 25.06 1.94009 27.0002 4.33333 27.0002H20.3333C22.7265 27.0002 24.6667 25.06 24.6667 22.6668V14.0002C24.6667 11.6069 22.7265 9.66683 20.3333 9.66683H3C2.44772 9.66683 2 9.21911 2 8.66683ZM2 22.6668V11.4961C2.31277 11.6067 2.64936 11.6668 3 11.6668H20.3333C21.622 11.6668 22.6667 12.7115 22.6667 14.0002V22.6668C22.6667 23.9555 21.622 25.0002 20.3333 25.0002H4.33333C3.04467 25.0002 2 23.9555 2 22.6668Z" fill="#161616"/>
</svg>
